# xmcd
#
# Track frame offsets: 
#        150
#        14127
#        25688
#        46288
#        64216
#        80613
#        96708
#        116462
#        131425
#        142854
#        164220
#
# Disc length: 2377 seconds
#
# Revision: 2
# Processed by: cddbd v1.5.2PL0 Copyright (c) Steve Scherf et al.
# Submitted via: ExactAudioCopy v0.99pb4
#
DISCID=9b09470b
DTITLE=Joan Osborne - Christmas Means Love
DYEAR=2005
DGENRE=Holiday
TTITLE0=Christmas Means Love
TTITLE1=Santa Claus Baby
TTITLE2=Away in a Manger
TTITLE3=Christmas Must Be Tonight
TTITLE4=Cherry Tree Carol
TTITLE5=Christmas in New Orleans
TTITLE6=Children Go Where I Send Thee
TTITLE7=Angels We Have Heard on High
TTITLE8=What Do Bad Girls Get?
TTITLE9=Great Day in December
TTITLE10=Silent Night
EXTD=
EXTT0=
EXTT1=
EXTT2=
EXTT3=
EXTT4=
EXTT5=
EXTT6=
EXTT7=
EXTT8=
EXTT9=
EXTT10=
PLAYORDER=
